<mxfile host="Electron" modified="2023-08-07T13:51:07.857Z" agent="Mozilla/5.0 (Windows NT 10.0; Win64; x64) AppleWebKit/537.36 (KHTML, like Gecko) draw.io/21.6.5 Chrome/114.0.5735.243 Electron/25.3.1 Safari/537.36" etag="5fYYHWaGCKpDsjioyYEh" version="21.6.5" type="device">
  <diagram name="Page-1" id="dpoSIcedn4w4DlAkcs_Z">
    <mxGraphModel dx="880" dy="545" grid="1" gridSize="10" guides="1" tooltips="1" connect="1" arrows="1" fold="1" page="1" pageScale="1" pageWidth="1169" pageHeight="827" math="0" shadow="0">
      <root>
        <mxCell id="0" />
        <mxCell id="1" parent="0" />
        <mxCell id="0AGOb8x45HGrNT-fxES2-16" style="edgeStyle=orthogonalEdgeStyle;rounded=0;orthogonalLoop=1;jettySize=auto;html=1;endArrow=openThin;endFill=0;endSize=12;dashed=1;" edge="1" parent="1" source="0AGOb8x45HGrNT-fxES2-10" target="0AGOb8x45HGrNT-fxES2-14">
          <mxGeometry relative="1" as="geometry" />
        </mxCell>
        <mxCell id="0AGOb8x45HGrNT-fxES2-17" style="edgeStyle=orthogonalEdgeStyle;rounded=0;orthogonalLoop=1;jettySize=auto;html=1;exitX=0.5;exitY=1;exitDx=0;exitDy=0;entryX=0.5;entryY=0;entryDx=0;entryDy=0;endArrow=openThin;endFill=0;endSize=12;dashed=1;" edge="1" parent="1" source="0AGOb8x45HGrNT-fxES2-10" target="0AGOb8x45HGrNT-fxES2-12">
          <mxGeometry relative="1" as="geometry" />
        </mxCell>
        <mxCell id="0AGOb8x45HGrNT-fxES2-10" value="«component»&lt;br&gt;&lt;b&gt;Order&lt;/b&gt;" style="html=1;dropTarget=0;whiteSpace=wrap;" vertex="1" parent="1">
          <mxGeometry x="40" y="40" width="140" height="60" as="geometry" />
        </mxCell>
        <mxCell id="0AGOb8x45HGrNT-fxES2-11" value="" style="shape=module;jettyWidth=8;jettyHeight=4;" vertex="1" parent="0AGOb8x45HGrNT-fxES2-10">
          <mxGeometry x="1" width="20" height="20" relative="1" as="geometry">
            <mxPoint x="-27" y="7" as="offset" />
          </mxGeometry>
        </mxCell>
        <mxCell id="0AGOb8x45HGrNT-fxES2-12" value="«component»&lt;br&gt;&lt;b&gt;Product&lt;/b&gt;" style="html=1;dropTarget=0;whiteSpace=wrap;" vertex="1" parent="1">
          <mxGeometry x="40" y="200" width="140" height="60" as="geometry" />
        </mxCell>
        <mxCell id="0AGOb8x45HGrNT-fxES2-13" value="" style="shape=module;jettyWidth=8;jettyHeight=4;" vertex="1" parent="0AGOb8x45HGrNT-fxES2-12">
          <mxGeometry x="1" width="20" height="20" relative="1" as="geometry">
            <mxPoint x="-27" y="7" as="offset" />
          </mxGeometry>
        </mxCell>
        <mxCell id="0AGOb8x45HGrNT-fxES2-14" value="«component»&lt;br&gt;&lt;b&gt;Account&lt;/b&gt;" style="html=1;dropTarget=0;whiteSpace=wrap;" vertex="1" parent="1">
          <mxGeometry x="280" y="40" width="140" height="60" as="geometry" />
        </mxCell>
        <mxCell id="0AGOb8x45HGrNT-fxES2-15" value="" style="shape=module;jettyWidth=8;jettyHeight=4;" vertex="1" parent="0AGOb8x45HGrNT-fxES2-14">
          <mxGeometry x="1" width="20" height="20" relative="1" as="geometry">
            <mxPoint x="-27" y="7" as="offset" />
          </mxGeometry>
        </mxCell>
        <mxCell id="0AGOb8x45HGrNT-fxES2-18" value="&lt;b&gt;Figure 11.39 Example of an overview diagram showing Components and their general Dependencies&lt;/b&gt;" style="text;html=1;align=left;verticalAlign=middle;resizable=0;points=[];autosize=1;strokeColor=none;fillColor=none;" vertex="1" parent="1">
          <mxGeometry x="40" y="278" width="600" height="30" as="geometry" />
        </mxCell>
      </root>
    </mxGraphModel>
  </diagram>
</mxfile>
